<svg xmlns="http://www.w3.org/2000/svg" xmlns:xlink="http://www.w3.org/1999/xlink" contentStyleType="text/css" height="777px" preserveAspectRatio="none" style="width:927px;height:777px;background:#FFFFFF;" version="1.1" viewBox="0 0 927 777" width="927px" zoomAndPan="magnify"><defs/><g><!--cluster dds_function_generator--><g id="cluster_dds_function_generator"><path d="M64,134 L256.96,134 A3.75,3.75 0 0 1 259.46,136.5 L266.46,156.2969 L915,156.2969 A2.5,2.5 0 0 1 917.5,158.7969 L917.5,636.5 A2.5,2.5 0 0 1 915,639 L64,639 A2.5,2.5 0 0 1 61.5,636.5 L61.5,136.5 A2.5,2.5 0 0 1 64,134 " fill="none" style="stroke:#000000;stroke-width:1.5;"/><line style="stroke:#000000;stroke-width:1.5;" x1="61.5" x2="266.46" y1="156.2969" y2="156.2969"/><text fill="#000000" font-family="sans-serif" font-size="14" font-weight="bold" lengthAdjust="spacing" textLength="191.96" x="65.5" y="148.9951">DDS Function Generator</text></g><!--entity dds_synthetizer--><g id="elem_dds_synthetizer"><rect fill="#F1F1F1" height="55.5938" rx="2.5" ry="2.5" style="stroke:#181818;stroke-width:0.5;" width="145.0146" x="94" y="310"/><polygon fill="#F1F1F1" points="222.0146,315,222.0146,329,234.0146,329,234.0146,321,228.0146,315,222.0146,315" style="stroke:#181818;stroke-width:0.5;"/><line style="stroke:#181818;stroke-width:0.5;" x1="228.0146" x2="228.0146" y1="315" y2="321"/><line style="stroke:#181818;stroke-width:0.5;" x1="234.0146" x2="228.0146" y1="321" y2="321"/><text fill="#000000" font-family="sans-serif" font-size="14" lengthAdjust="spacing" textLength="115.0146" x="104" y="335.9951">DDS Synthetizer</text><text fill="#000000" font-family="sans-serif" font-size="14" lengthAdjust="spacing" textLength="66.9102" x="104" y="352.292">(AD9832)</text></g><!--entity rf_amplifier--><g id="elem_rf_amplifier"><rect fill="#F1F1F1" height="55.5938" rx="2.5" ry="2.5" style="stroke:#181818;stroke-width:0.5;" width="115.2988" x="252" y="443"/><polygon fill="#F1F1F1" points="350.2988,448,350.2988,462,362.2988,462,362.2988,454,356.2988,448,350.2988,448" style="stroke:#181818;stroke-width:0.5;"/><line style="stroke:#181818;stroke-width:0.5;" x1="356.2988" x2="356.2988" y1="448" y2="454"/><line style="stroke:#181818;stroke-width:0.5;" x1="362.2988" x2="356.2988" y1="454" y2="454"/><text fill="#000000" font-family="sans-serif" font-size="14" lengthAdjust="spacing" textLength="85.2988" x="262" y="468.9951">RF Amplifier</text><text fill="#000000" font-family="sans-serif" font-size="14" lengthAdjust="spacing" textLength="66.9102" x="262" y="485.292">(AD8325)</text></g><!--entity attenuators--><g id="elem_attenuators"><rect fill="#F1F1F1" height="39.2969" rx="2.5" ry="2.5" style="stroke:#181818;stroke-width:0.5;" width="112.5986" x="311" y="576"/><polygon fill="#F1F1F1" points="406.5986,581,406.5986,595,418.5986,595,418.5986,587,412.5986,581,406.5986,581" style="stroke:#181818;stroke-width:0.5;"/><line style="stroke:#181818;stroke-width:0.5;" x1="412.5986" x2="412.5986" y1="581" y2="587"/><line style="stroke:#181818;stroke-width:0.5;" x1="418.5986" x2="412.5986" y1="587" y2="587"/><text fill="#000000" font-family="sans-serif" font-size="14" lengthAdjust="spacing" textLength="82.5986" x="321" y="601.9951">Attenuators</text></g><!--entity microcontroller--><g id="elem_microcontroller"><rect fill="#F1F1F1" height="55.5938" rx="2.5" ry="2.5" style="stroke:#181818;stroke-width:0.5;" width="157.9551" x="386.5" y="177"/><polygon fill="#F1F1F1" points="527.4551,182,527.4551,196,539.4551,196,539.4551,188,533.4551,182,527.4551,182" style="stroke:#181818;stroke-width:0.5;"/><line style="stroke:#181818;stroke-width:0.5;" x1="533.4551" x2="533.4551" y1="182" y2="188"/><line style="stroke:#181818;stroke-width:0.5;" x1="539.4551" x2="533.4551" y1="188" y2="188"/><text fill="#000000" font-family="sans-serif" font-size="14" lengthAdjust="spacing" textLength="105.082" x="396.5" y="202.9951">Microcontroller</text><text fill="#000000" font-family="sans-serif" font-size="14" lengthAdjust="spacing" textLength="127.9551" x="396.5" y="219.292">(STM32F030K6Tx)</text></g><!--entity controlling_interface--><g id="elem_controlling_interface"><rect fill="#F1F1F1" height="55.5938" rx="2.5" ry="2.5" style="stroke:#181818;stroke-width:0.5;" width="199.0322" x="502" y="310"/><polygon fill="#F1F1F1" points="684.0322,315,684.0322,329,696.0322,329,696.0322,321,690.0322,315,684.0322,315" style="stroke:#181818;stroke-width:0.5;"/><line style="stroke:#181818;stroke-width:0.5;" x1="690.0322" x2="690.0322" y1="315" y2="321"/><line style="stroke:#181818;stroke-width:0.5;" x1="696.0322" x2="690.0322" y1="321" y2="321"/><text fill="#000000" font-family="sans-serif" font-size="14" lengthAdjust="spacing" textLength="98.3623" x="512" y="335.9951">SCPI Interface</text><text fill="#000000" font-family="sans-serif" font-size="14" lengthAdjust="spacing" textLength="169.0322" x="512" y="352.292">(Command and Control)</text></g><!--entity user_interface--><g id="elem_user_interface"><rect fill="#F1F1F1" height="55.5938" rx="2.5" ry="2.5" style="stroke:#181818;stroke-width:0.5;" width="156.7383" x="736" y="310"/><polygon fill="#F1F1F1" points="875.7383,315,875.7383,329,887.7383,329,887.7383,321,881.7383,315,875.7383,315" style="stroke:#181818;stroke-width:0.5;"/><line style="stroke:#181818;stroke-width:0.5;" x1="881.7383" x2="881.7383" y1="315" y2="321"/><line style="stroke:#181818;stroke-width:0.5;" x1="887.7383" x2="881.7383" y1="321" y2="321"/><text fill="#000000" font-family="sans-serif" font-size="14" lengthAdjust="spacing" textLength="99.0391" x="746" y="335.9951">User Interface</text><text fill="#000000" font-family="sans-serif" font-size="14" lengthAdjust="spacing" textLength="126.7383" x="746" y="352.292">(LCD + 4 buttons)</text></g><!--entity power_supply--><g id="elem_power_supply"><rect fill="#F1F1F1" height="55.5938" rx="2.5" ry="2.5" style="stroke:#181818;stroke-width:0.5;" width="124.9854" x="7" y="7"/><polygon fill="#F1F1F1" points="114.9854,12,114.9854,26,126.9854,26,126.9854,18,120.9854,12,114.9854,12" style="stroke:#181818;stroke-width:0.5;"/><line style="stroke:#181818;stroke-width:0.5;" x1="120.9854" x2="120.9854" y1="12" y2="18"/><line style="stroke:#181818;stroke-width:0.5;" x1="126.9854" x2="120.9854" y1="18" y2="18"/><text fill="#000000" font-family="sans-serif" font-size="14" lengthAdjust="spacing" textLength="94.9854" x="17" y="32.9951">Power Supply</text><text fill="#000000" font-family="sans-serif" font-size="14" lengthAdjust="spacing" textLength="54.4141" x="17" y="49.292">(5V DC)</text></g><!--entity out_dds_50_ohm--><g id="elem_out_dds_50_ohm"><ellipse cx="367.5" cy="739" fill="#F1F1F1" rx="8" ry="8" style="stroke:#181818;stroke-width:0.5;"/><text fill="#000000" font-family="sans-serif" font-size="14" lengthAdjust="spacing" textLength="108.876" x="313.062" y="768.9951">50 Ohm Output</text></g><!--entity user_hmi_interface--><g id="elem_user_hmi_interface"><ellipse cx="814.5" cy="739" fill="#F1F1F1" rx="8" ry="8" style="stroke:#181818;stroke-width:0.5;"/><text fill="#000000" font-family="sans-serif" font-size="14" lengthAdjust="spacing" textLength="93.8643" x="767.5679" y="768.9951">HMI Interface</text></g><!--entity scpi_command_interface--><g id="elem_scpi_command_interface"><ellipse cx="617.5" cy="739" fill="#F1F1F1" rx="8" ry="8" style="stroke:#181818;stroke-width:0.5;"/><text fill="#000000" font-family="sans-serif" font-size="14" lengthAdjust="spacing" textLength="174.7676" x="530.1162" y="768.9951">SCPI Command Interface</text></g><!--link power_supply to dds_function_generator--><g id="link_power_supply_dds_function_generator"><path d="M69.5,63.37 C69.5,75.085 69.5,89.5506 69.5,104.7036 C69.5,112.2801 69.5,120.0284 69.5,127.6906 C69.5,129.6062 69.5,125.5164 69.5,127.4172 " fill="none" id="power_supply-to-dds_function_generator" style="stroke:#181818;stroke-width:1.0;"/><polygon fill="#181818" points="69.5,133.4172,73.5,124.4172,69.5,128.4172,65.5,124.4172,69.5,133.4172" style="stroke:#181818;stroke-width:1.0;"/><text fill="#000000" font-family="sans-serif" font-size="13" lengthAdjust="spacing" textLength="109.4971" x="70.5" y="106.0669">5V Power Supply</text></g><!--link dds_synthetizer to rf_amplifier--><g id="link_dds_synthetizer_rf_amplifier"><path d="M167.84,366.23 C169.87,381.47 174.62,399.97 185.5,413 C202.43,433.28 222.509,444.6383 246.129,453.3283 " fill="none" id="dds_synthetizer-to-rf_amplifier" style="stroke:#181818;stroke-width:1.0;"/><polygon fill="#181818" points="251.76,455.4,244.6946,448.5385,247.0675,453.6736,241.9324,456.0465,251.76,455.4" style="stroke:#181818;stroke-width:1.0;"/><text fill="#000000" font-family="sans-serif" font-size="13" lengthAdjust="spacing" textLength="113.0327" x="186.5" y="409.0669">Generated Signal</text></g><!--link rf_amplifier to attenuators--><g id="link_rf_amplifier_attenuators"><path d="M322.37,499.19 C333.39,522.45 346.3831,549.8968 356.0531,570.3268 " fill="none" id="rf_amplifier-to-attenuators" style="stroke:#181818;stroke-width:1.0;"/><polygon fill="#181818" points="358.62,575.75,358.3851,565.9039,356.4809,571.2307,351.1542,569.3265,358.62,575.75" style="stroke:#181818;stroke-width:1.0;"/><text fill="#000000" font-family="sans-serif" font-size="13" lengthAdjust="spacing" textLength="105.5361" x="344.5" y="542.0669">Amplified Signal</text></g><!--link attenuators to out_dds_50_ohm--><g id="link_attenuators_out_dds_50_ohm"><path d="M367.5,615.29 C367.5,646.56 367.5,702.03 367.5,723.97 " fill="none" id="attenuators-to-out_dds_50_ohm" style="stroke:#181818;stroke-width:1.0;"/><polygon fill="#181818" points="367.5,729.97,371.5,720.97,367.5,724.97,363.5,720.97,367.5,729.97" style="stroke:#181818;stroke-width:1.0;"/><text fill="#000000" font-family="sans-serif" font-size="13" lengthAdjust="spacing" textLength="101.0991" x="368.5" y="676.0669">50 Ohm Output</text></g><!--link microcontroller to controlling_interface--><g id="link_microcontroller_controlling_interface"><path d="M498.0006,237.3032 C521.3406,259.7932 545.7085,283.2578 569.0385,305.7278 " fill="none" id="microcontroller-controlling_interface" style="stroke:#181818;stroke-width:1.0;"/><polygon fill="#181818" points="493.68,233.14,497.3854,242.2652,497.2805,236.6094,502.9364,236.5045,493.68,233.14" style="stroke:#181818;stroke-width:1.0;"/><polygon fill="#181818" points="573.36,309.89,569.6525,300.7656,569.7587,306.4215,564.1029,306.5277,573.36,309.89" style="stroke:#181818;stroke-width:1.0;"/><text fill="#000000" font-family="sans-serif" font-size="13" lengthAdjust="spacing" textLength="80.4121" x="542.5" y="276.0669">SCPI Control</text></g><!--link microcontroller to dds_synthetizer--><g id="link_microcontroller_dds_synthetizer"><path d="M386.06,232.14 C384.87,232.44 383.68,232.72 382.5,233 C338.11,243.42 212.18,231.2 179.5,263 C167.25,274.92 164.1894,288.0202 164.0594,303.8202 " fill="none" id="microcontroller-to-dds_synthetizer" style="stroke:#181818;stroke-width:1.0;"/><polygon fill="#181818" points="164.01,309.82,168.0839,300.8532,164.0511,304.8202,160.0842,300.7874,164.01,309.82" style="stroke:#181818;stroke-width:1.0;"/><text fill="#000000" font-family="sans-serif" font-size="13" lengthAdjust="spacing" textLength="119.7993" x="180.5" y="276.0669">Frequency Control</text></g><!--link microcontroller to rf_amplifier--><g id="link_microcontroller_rf_amplifier"><path d="M416.57,233.12 C388.62,251.21 355.47,277.6 336.5,310 C312.09,351.69 308.2467,403.33 308.3767,436.84 " fill="none" id="microcontroller-to-rf_amplifier" style="stroke:#181818;stroke-width:1.0;"/><polygon fill="#181818" points="308.4,442.84,312.3651,433.8246,308.3806,437.84,304.3651,433.8556,308.4,442.84" style="stroke:#181818;stroke-width:1.0;"/><text fill="#000000" font-family="sans-serif" font-size="13" lengthAdjust="spacing" textLength="118.0283" x="337.5" y="342.5669">Amplitude Control</text></g><!--link microcontroller to attenuators--><g id="link_microcontroller_attenuators"><path d="M465.69,233.15 C466.12,311.41 466.63,532.76 458.5,546 C450.54,558.97 443.1213,565.8412 429.6913,573.0212 " fill="none" id="microcontroller-to-attenuators" style="stroke:#181818;stroke-width:1.0;"/><polygon fill="#181818" points="424.4,575.85,434.2228,575.1343,428.8094,573.4926,430.451,568.0792,424.4,575.85" style="stroke:#181818;stroke-width:1.0;"/><text fill="#000000" font-family="sans-serif" font-size="13" lengthAdjust="spacing" textLength="127.8418" x="465.5" y="409.0669">Attenuation Control</text></g><!--link microcontroller to user_interface--><g id="link_microcontroller_user_interface"><path d="M550.4396,234.1844 C578.0096,243.5744 603.38,252.5 631.5,263 C671.15,277.81 709.5833,293.2621 744.4933,307.6621 " fill="none" id="microcontroller-user_interface" style="stroke:#181818;stroke-width:1.0;"/><polygon fill="#181818" points="544.76,232.25,551.9898,238.938,549.493,233.862,554.569,231.3652,544.76,232.25" style="stroke:#181818;stroke-width:1.0;"/><polygon fill="#181818" points="750.04,309.95,743.2453,302.8203,745.4178,308.0434,740.1947,310.2159,750.04,309.95" style="stroke:#181818;stroke-width:1.0;"/><text fill="#000000" font-family="sans-serif" font-size="13" lengthAdjust="spacing" textLength="168.4541" x="672.5" y="276.0669">User Controls and Display</text></g><!--link user_interface to user_hmi_interface--><g id="link_user_interface_user_hmi_interface"><path d="M814.5,372.11 C814.5,452.79 814.5,676.68 814.5,723.77 " fill="none" id="user_interface-user_hmi_interface" style="stroke:#181818;stroke-width:1.0;"/><polygon fill="#181818" points="814.5,366.11,810.5,375.11,814.5,371.11,818.5,375.11,814.5,366.11" style="stroke:#181818;stroke-width:1.0;"/><polygon fill="#181818" points="814.5,729.77,818.5,720.77,814.5,724.77,810.5,720.77,814.5,729.77" style="stroke:#181818;stroke-width:1.0;"/><text fill="#000000" font-family="sans-serif" font-size="13" lengthAdjust="spacing" textLength="104.292" x="815.5" y="542.0669">User Interaction</text></g><!--link controlling_interface to scpi_command_interface--><g id="link_controlling_interface_scpi_command_interface"><path d="M602.83,372.1052 C606.06,452.7852 615.0394,676.6848 616.9294,723.7748 " fill="none" id="controlling_interface-scpi_command_interface" style="stroke:#181818;stroke-width:1.0;"/><polygon fill="#181818" points="602.59,366.11,598.9532,375.2628,602.79,371.106,606.9468,374.9428,602.59,366.11" style="stroke:#181818;stroke-width:1.0;"/><polygon fill="#181818" points="617.17,729.77,620.8058,720.6168,616.9695,724.774,612.8123,720.9377,617.17,729.77" style="stroke:#181818;stroke-width:1.0;"/><text fill="#000000" font-family="sans-serif" font-size="13" lengthAdjust="spacing" textLength="154.1465" x="610.5" y="542.0669">Command Input/Output</text></g><!--SRC=[VPFTRjD048Nlzob6le4AHKGDGHHLI96jG0LHAznoXMHjxKcymjurksk5KF7kx8_jh8rff5muCz-Pp9nZAZNRqrn3T2UEA25jcwOwVUSlrzyWYIyYe0eQMycKgn3IqFm7FI14IPB2jkMvPeB3H-GegHRI4KMXidrNoWvz2Pu8c0_jHtg9zCHrYPhzHcd6RfAhTwlBYq55dQjJ-EiMDdLJiJthI0EkFIdt6UrBKsoZDVBM_X_bUkdvUTgwOxaKkU1QYgfoGzBxtUfokrmjFx-z_-LdrUEcgKOQtzt03TSepGze969HrvGNOB-nnxnGhy7u8MCzC9LxKCQaKEvBdC0hU0EFhTQ2Ao_Lcgv0umyXBy3xwrq4BS2S5UOj9A7Xi2Z4aIy-_C_Jzn2Pg8JXYUoq1FUCenjos-gcrJ3y7GL7fakeXKJ8AogPFf6XQDIMS5lM7UMs4QtExFJrCXDb7VP-sWMtFMzUrYpOFkXtPlG6Z46LDopBVIc0nwiOYpYw2oZddyIAkgUIDGeUKHyHkUliBLDaac9Oc5k6-RGNx4wF1QJim6aLaL67HOAOMg9F_fa86ommlfhpQNHPGYR9XMkBpQRGqjtjN3NwXrrq2GatDT1MuiyMUNvwdfpUmssdsmAVnwOtwHvjc0TkViln2s9Xzs9rb3StOQgfg8_pa9Km0cIYSkrVbK5_5CDXXfEYJY4YyzSEXEPZQSNECJPklkvC_Gi0]--></g></svg>