solid OpenSCAD_Model
  facet normal -0.951053 -0.309029 0
    outer loop
      vertex 4.4563 5.41582 11.1
      vertex 4.32709 5.81347 14.1
      vertex 4.32709 5.81347 11.1
    endloop
  endfacet
  facet normal -0.951053 -0.309029 0
    outer loop
      vertex 4.32709 5.81347 14.1
      vertex 4.4563 5.41582 11.1
      vertex 4.4563 5.41582 14.1
    endloop
  endfacet
  facet normal 0 0 1
    outer loop
      vertex 4.4563 5.41582 11.1
      vertex 4.4563 4.58418 11.1
      vertex 4.5 5 11.1
    endloop
  endfacet
  facet normal 0 0 1
    outer loop
      vertex 4.32709 5.81347 11.1
      vertex 4.4563 4.58418 11.1
      vertex 4.4563 5.41582 11.1
    endloop
  endfacet
  facet normal 0 0 1
    outer loop
      vertex 4.32709 5.81347 11.1
      vertex 4.32709 4.18653 11.1
      vertex 4.4563 4.58418 11.1
    endloop
  endfacet
  facet normal 0 0 1
    outer loop
      vertex 4.11803 6.17557 11.1
      vertex 4.32709 4.18653 11.1
      vertex 4.32709 5.81347 11.1
    endloop
  endfacet
  facet normal 0 0 1
    outer loop
      vertex 4.11803 6.17557 11.1
      vertex 4.11803 3.82443 11.1
      vertex 4.32709 4.18653 11.1
    endloop
  endfacet
  facet normal 0 0 1
    outer loop
      vertex 3.83826 6.48629 11.1
      vertex 4.11803 3.82443 11.1
      vertex 4.11803 6.17557 11.1
    endloop
  endfacet
  facet normal 0 0 1
    outer loop
      vertex 3.83826 6.48629 11.1
      vertex 3.83826 3.51371 11.1
      vertex 4.11803 3.82443 11.1
    endloop
  endfacet
  facet normal 0 0 1
    outer loop
      vertex 3.5 6.73205 11.1
      vertex 3.83826 3.51371 11.1
      vertex 3.83826 6.48629 11.1
    endloop
  endfacet
  facet normal 0 0 1
    outer loop
      vertex 3.5 6.73205 11.1
      vertex 3.5 3.26795 11.1
      vertex 3.83826 3.51371 11.1
    endloop
  endfacet
  facet normal 0 0 1
    outer loop
      vertex 3.11803 6.90211 11.1
      vertex 3.5 3.26795 11.1
      vertex 3.5 6.73205 11.1
    endloop
  endfacet
  facet normal 0 0 1
    outer loop
      vertex 3.11803 6.90211 11.1
      vertex 3.11803 3.09789 11.1
      vertex 3.5 3.26795 11.1
    endloop
  endfacet
  facet normal 0 0 1
    outer loop
      vertex 2.70906 6.98904 11.1
      vertex 3.11803 3.09789 11.1
      vertex 3.11803 6.90211 11.1
    endloop
  endfacet
  facet normal 0 0 1
    outer loop
      vertex 2.70906 6.98904 11.1
      vertex 2.70906 3.01096 11.1
      vertex 3.11803 3.09789 11.1
    endloop
  endfacet
  facet normal -0 0 1
    outer loop
      vertex 2.29094 6.98904 11.1
      vertex 2.70906 3.01096 11.1
      vertex 2.70906 6.98904 11.1
    endloop
  endfacet
  facet normal 0 0 1
    outer loop
      vertex 2.29094 6.98904 11.1
      vertex 2.29094 3.01096 11.1
      vertex 2.70906 3.01096 11.1
    endloop
  endfacet
  facet normal -0 0 1
    outer loop
      vertex 1.88197 6.90211 11.1
      vertex 2.29094 3.01096 11.1
      vertex 2.29094 6.98904 11.1
    endloop
  endfacet
  facet normal 0 0 1
    outer loop
      vertex 1.88197 6.90211 11.1
      vertex 1.88197 3.09789 11.1
      vertex 2.29094 3.01096 11.1
    endloop
  endfacet
  facet normal -0 0 1
    outer loop
      vertex 1.5 6.73205 11.1
      vertex 1.88197 3.09789 11.1
      vertex 1.88197 6.90211 11.1
    endloop
  endfacet
  facet normal 0 0 1
    outer loop
      vertex 1.5 6.73205 11.1
      vertex 1.5 3.26795 11.1
      vertex 1.88197 3.09789 11.1
    endloop
  endfacet
  facet normal -0 0 1
    outer loop
      vertex 1.16174 6.48629 11.1
      vertex 1.5 3.26795 11.1
      vertex 1.5 6.73205 11.1
    endloop
  endfacet
  facet normal 0 0 1
    outer loop
      vertex 1.16174 6.48629 11.1
      vertex 1.16174 3.51371 11.1
      vertex 1.5 3.26795 11.1
    endloop
  endfacet
  facet normal -0 0 1
    outer loop
      vertex 0.881966 6.17557 11.1
      vertex 1.16174 3.51371 11.1
      vertex 1.16174 6.48629 11.1
    endloop
  endfacet
  facet normal 0 0 1
    outer loop
      vertex 0.881966 6.17557 11.1
      vertex 0.881966 3.82443 11.1
      vertex 1.16174 3.51371 11.1
    endloop
  endfacet
  facet normal -0 0 1
    outer loop
      vertex 0.672909 5.81347 11.1
      vertex 0.881966 3.82443 11.1
      vertex 0.881966 6.17557 11.1
    endloop
  endfacet
  facet normal 0 0 1
    outer loop
      vertex 0.672909 5.81347 11.1
      vertex 0.672909 4.18653 11.1
      vertex 0.881966 3.82443 11.1
    endloop
  endfacet
  facet normal -0 0 1
    outer loop
      vertex 0.543704 5.41582 11.1
      vertex 0.672909 4.18653 11.1
      vertex 0.672909 5.81347 11.1
    endloop
  endfacet
  facet normal 0 0 1
    outer loop
      vertex 0.543704 5.41582 11.1
      vertex 0.543704 4.58418 11.1
      vertex 0.672909 4.18653 11.1
    endloop
  endfacet
  facet normal 0 -0 1
    outer loop
      vertex 0.543704 4.58418 11.1
      vertex 0.543704 5.41582 11.1
      vertex 0.5 5 11.1
    endloop
  endfacet
  facet normal -0.994523 -0.104518 0
    outer loop
      vertex 4.5 5 11.1
      vertex 4.4563 5.41582 14.1
      vertex 4.4563 5.41582 11.1
    endloop
  endfacet
  facet normal -0.994523 -0.104518 0
    outer loop
      vertex 4.4563 5.41582 14.1
      vertex 4.5 5 11.1
      vertex 4.5 5 14.1
    endloop
  endfacet
  facet normal -0.406729 -0.913549 0
    outer loop
      vertex 3.11803 6.90211 11.1
      vertex 3.5 6.73205 14.1
      vertex 3.11803 6.90211 14.1
    endloop
  endfacet
  facet normal -0.406729 -0.913549 -0
    outer loop
      vertex 3.5 6.73205 14.1
      vertex 3.11803 6.90211 11.1
      vertex 3.5 6.73205 11.1
    endloop
  endfacet
  facet normal 0.587785 0.809017 -0
    outer loop
      vertex 1.5 3.26795 11.1
      vertex 1.16174 3.51371 14.1
      vertex 1.5 3.26795 14.1
    endloop
  endfacet
  facet normal 0.587785 0.809017 0
    outer loop
      vertex 1.16174 3.51371 14.1
      vertex 1.5 3.26795 11.1
      vertex 1.16174 3.51371 11.1
    endloop
  endfacet
  facet normal -0.994523 0.104518 0
    outer loop
      vertex 4.4563 4.58418 11.1
      vertex 4.5 5 14.1
      vertex 4.5 5 11.1
    endloop
  endfacet
  facet normal -0.994523 0.104518 0
    outer loop
      vertex 4.5 5 14.1
      vertex 4.4563 4.58418 11.1
      vertex 4.4563 4.58418 14.1
    endloop
  endfacet
  facet normal 0.406729 -0.913549 0
    outer loop
      vertex 1.5 6.73205 11.1
      vertex 1.88197 6.90211 14.1
      vertex 1.5 6.73205 14.1
    endloop
  endfacet
  facet normal 0.406729 -0.913549 0
    outer loop
      vertex 1.88197 6.90211 14.1
      vertex 1.5 6.73205 11.1
      vertex 1.88197 6.90211 11.1
    endloop
  endfacet
  facet normal 0.743144 0.669131 0
    outer loop
      vertex 1.16174 3.51371 14.1
      vertex 0.881966 3.82443 11.1
      vertex 0.881966 3.82443 14.1
    endloop
  endfacet
  facet normal 0.743144 0.669131 0
    outer loop
      vertex 0.881966 3.82443 11.1
      vertex 1.16174 3.51371 14.1
      vertex 1.16174 3.51371 11.1
    endloop
  endfacet
  facet normal 0.994522 0.104527 0
    outer loop
      vertex 0.543704 4.58418 14.1
      vertex 0.5 5 11.1
      vertex 0.5 5 14.1
    endloop
  endfacet
  facet normal 0.994522 0.104527 0
    outer loop
      vertex 0.5 5 11.1
      vertex 0.543704 4.58418 14.1
      vertex 0.543704 4.58418 11.1
    endloop
  endfacet
  facet normal 0.743144 -0.669131 0
    outer loop
      vertex 0.881966 6.17557 14.1
      vertex 1.16174 6.48629 11.1
      vertex 1.16174 6.48629 14.1
    endloop
  endfacet
  facet normal 0.743144 -0.669131 0
    outer loop
      vertex 1.16174 6.48629 11.1
      vertex 0.881966 6.17557 14.1
      vertex 0.881966 6.17557 11.1
    endloop
  endfacet
  facet normal -0.207913 -0.978147 0
    outer loop
      vertex 2.70906 6.98904 11.1
      vertex 3.11803 6.90211 14.1
      vertex 2.70906 6.98904 14.1
    endloop
  endfacet
  facet normal -0.207913 -0.978147 -0
    outer loop
      vertex 3.11803 6.90211 14.1
      vertex 2.70906 6.98904 11.1
      vertex 3.11803 6.90211 11.1
    endloop
  endfacet
  facet normal -0.743149 -0.669126 0
    outer loop
      vertex 4.11803 6.17557 11.1
      vertex 3.83826 6.48629 14.1
      vertex 3.83826 6.48629 11.1
    endloop
  endfacet
  facet normal -0.743149 -0.669126 0
    outer loop
      vertex 3.83826 6.48629 14.1
      vertex 4.11803 6.17557 11.1
      vertex 4.11803 6.17557 14.1
    endloop
  endfacet
  facet normal 0.951056 0.309018 0
    outer loop
      vertex 0.672909 4.18653 14.1
      vertex 0.543704 4.58418 11.1
      vertex 0.543704 4.58418 14.1
    endloop
  endfacet
  facet normal 0.951056 0.309018 0
    outer loop
      vertex 0.543704 4.58418 11.1
      vertex 0.672909 4.18653 14.1
      vertex 0.672909 4.18653 11.1
    endloop
  endfacet
  facet normal 0.866027 0.499997 0
    outer loop
      vertex 0.881966 3.82443 14.1
      vertex 0.672909 4.18653 11.1
      vertex 0.672909 4.18653 14.1
    endloop
  endfacet
  facet normal 0.866027 0.499997 0
    outer loop
      vertex 0.672909 4.18653 11.1
      vertex 0.881966 3.82443 14.1
      vertex 0.881966 3.82443 11.1
    endloop
  endfacet
  facet normal 0.207913 0.978147 -0
    outer loop
      vertex 2.29094 3.01096 11.1
      vertex 1.88197 3.09789 14.1
      vertex 2.29094 3.01096 14.1
    endloop
  endfacet
  facet normal 0.207913 0.978147 0
    outer loop
      vertex 1.88197 3.09789 14.1
      vertex 2.29094 3.01096 11.1
      vertex 1.88197 3.09789 11.1
    endloop
  endfacet
  facet normal 0 1 -0
    outer loop
      vertex 2.70906 3.01096 11.1
      vertex 2.29094 3.01096 14.1
      vertex 2.70906 3.01096 14.1
    endloop
  endfacet
  facet normal 0 1 0
    outer loop
      vertex 2.29094 3.01096 14.1
      vertex 2.70906 3.01096 11.1
      vertex 2.29094 3.01096 11.1
    endloop
  endfacet
  facet normal -0.207913 0.978147 0
    outer loop
      vertex 3.11803 3.09789 11.1
      vertex 2.70906 3.01096 14.1
      vertex 3.11803 3.09789 14.1
    endloop
  endfacet
  facet normal -0.207913 0.978147 0
    outer loop
      vertex 2.70906 3.01096 14.1
      vertex 3.11803 3.09789 11.1
      vertex 2.70906 3.01096 11.1
    endloop
  endfacet
  facet normal -0.406729 0.913549 0
    outer loop
      vertex 3.5 3.26795 11.1
      vertex 3.11803 3.09789 14.1
      vertex 3.5 3.26795 14.1
    endloop
  endfacet
  facet normal -0.406729 0.913549 0
    outer loop
      vertex 3.11803 3.09789 14.1
      vertex 3.5 3.26795 11.1
      vertex 3.11803 3.09789 11.1
    endloop
  endfacet
  facet normal -0.587785 0.809017 0
    outer loop
      vertex 3.83826 3.51371 11.1
      vertex 3.5 3.26795 14.1
      vertex 3.83826 3.51371 14.1
    endloop
  endfacet
  facet normal -0.587785 0.809017 0
    outer loop
      vertex 3.5 3.26795 14.1
      vertex 3.83826 3.51371 11.1
      vertex 3.5 3.26795 11.1
    endloop
  endfacet
  facet normal -0.866024 0.500003 0
    outer loop
      vertex 4.11803 3.82443 11.1
      vertex 4.32709 4.18653 14.1
      vertex 4.32709 4.18653 11.1
    endloop
  endfacet
  facet normal -0.866024 0.500003 0
    outer loop
      vertex 4.32709 4.18653 14.1
      vertex 4.11803 3.82443 11.1
      vertex 4.11803 3.82443 14.1
    endloop
  endfacet
  facet normal 0.587785 -0.809017 0
    outer loop
      vertex 1.16174 6.48629 11.1
      vertex 1.5 6.73205 14.1
      vertex 1.16174 6.48629 14.1
    endloop
  endfacet
  facet normal 0.587785 -0.809017 0
    outer loop
      vertex 1.5 6.73205 14.1
      vertex 1.16174 6.48629 11.1
      vertex 1.5 6.73205 11.1
    endloop
  endfacet
  facet normal 0.866027 -0.499997 0
    outer loop
      vertex 0.672909 5.81347 14.1
      vertex 0.881966 6.17557 11.1
      vertex 0.881966 6.17557 14.1
    endloop
  endfacet
  facet normal 0.866027 -0.499997 0
    outer loop
      vertex 0.881966 6.17557 11.1
      vertex 0.672909 5.81347 14.1
      vertex 0.672909 5.81347 11.1
    endloop
  endfacet
  facet normal 0.951056 -0.309018 0
    outer loop
      vertex 0.543704 5.41582 14.1
      vertex 0.672909 5.81347 11.1
      vertex 0.672909 5.81347 14.1
    endloop
  endfacet
  facet normal 0.951056 -0.309018 0
    outer loop
      vertex 0.672909 5.81347 11.1
      vertex 0.543704 5.41582 14.1
      vertex 0.543704 5.41582 11.1
    endloop
  endfacet
  facet normal -0.587785 -0.809017 0
    outer loop
      vertex 3.5 6.73205 11.1
      vertex 3.83826 6.48629 14.1
      vertex 3.5 6.73205 14.1
    endloop
  endfacet
  facet normal -0.587785 -0.809017 -0
    outer loop
      vertex 3.83826 6.48629 14.1
      vertex 3.5 6.73205 11.1
      vertex 3.83826 6.48629 11.1
    endloop
  endfacet
  facet normal -0.866024 -0.500003 0
    outer loop
      vertex 4.32709 5.81347 11.1
      vertex 4.11803 6.17557 14.1
      vertex 4.11803 6.17557 11.1
    endloop
  endfacet
  facet normal -0.866024 -0.500003 0
    outer loop
      vertex 4.11803 6.17557 14.1
      vertex 4.32709 5.81347 11.1
      vertex 4.32709 5.81347 14.1
    endloop
  endfacet
  facet normal 0 -1 0
    outer loop
      vertex 2.29094 6.98904 11.1
      vertex 2.70906 6.98904 14.1
      vertex 2.29094 6.98904 14.1
    endloop
  endfacet
  facet normal 0 -1 -0
    outer loop
      vertex 2.70906 6.98904 14.1
      vertex 2.29094 6.98904 11.1
      vertex 2.70906 6.98904 11.1
    endloop
  endfacet
  facet normal 0.207913 -0.978147 0
    outer loop
      vertex 1.88197 6.90211 11.1
      vertex 2.29094 6.98904 14.1
      vertex 1.88197 6.90211 14.1
    endloop
  endfacet
  facet normal 0.207913 -0.978147 0
    outer loop
      vertex 2.29094 6.98904 14.1
      vertex 1.88197 6.90211 11.1
      vertex 2.29094 6.98904 11.1
    endloop
  endfacet
  facet normal 0.406729 0.913549 -0
    outer loop
      vertex 1.88197 3.09789 11.1
      vertex 1.5 3.26795 14.1
      vertex 1.88197 3.09789 14.1
    endloop
  endfacet
  facet normal 0.406729 0.913549 0
    outer loop
      vertex 1.5 3.26795 14.1
      vertex 1.88197 3.09789 11.1
      vertex 1.5 3.26795 11.1
    endloop
  endfacet
  facet normal -0.743149 0.669126 0
    outer loop
      vertex 3.83826 3.51371 11.1
      vertex 4.11803 3.82443 14.1
      vertex 4.11803 3.82443 11.1
    endloop
  endfacet
  facet normal -0.743149 0.669126 0
    outer loop
      vertex 4.11803 3.82443 14.1
      vertex 3.83826 3.51371 11.1
      vertex 3.83826 3.51371 14.1
    endloop
  endfacet
  facet normal -0.951053 0.309029 0
    outer loop
      vertex 4.32709 4.18653 11.1
      vertex 4.4563 4.58418 14.1
      vertex 4.4563 4.58418 11.1
    endloop
  endfacet
  facet normal -0.951053 0.309029 0
    outer loop
      vertex 4.4563 4.58418 14.1
      vertex 4.32709 4.18653 11.1
      vertex 4.32709 4.18653 14.1
    endloop
  endfacet
  facet normal 0.994522 -0.104527 0
    outer loop
      vertex 0.5 5 14.1
      vertex 0.543704 5.41582 11.1
      vertex 0.543704 5.41582 14.1
    endloop
  endfacet
  facet normal 0.994522 -0.104527 0
    outer loop
      vertex 0.543704 5.41582 11.1
      vertex 0.5 5 14.1
      vertex 0.5 5 11.1
    endloop
  endfacet
  facet normal -0 0 1
    outer loop
      vertex 1 3 3
      vertex 4 0 3
      vertex 4 3 3
    endloop
  endfacet
  facet normal 0 0 1
    outer loop
      vertex 4 0 3
      vertex 1 3 3
      vertex 1 0 3
    endloop
  endfacet
  facet normal -1 0 0
    outer loop
      vertex 4 0 3
      vertex 4 3 6
      vertex 4 3 3
    endloop
  endfacet
  facet normal -1 -0 0
    outer loop
      vertex 4 3 6
      vertex 4 0 3
      vertex 4 0 6
    endloop
  endfacet
  facet normal 1 -0 0
    outer loop
      vertex 1 0 6
      vertex 1 3 3
      vertex 1 3 6
    endloop
  endfacet
  facet normal 1 0 0
    outer loop
      vertex 1 3 3
      vertex 1 0 6
      vertex 1 0 3
    endloop
  endfacet
  facet normal 0 -1 0
    outer loop
      vertex 4 0 3
      vertex 6 0 6
      vertex 4 0 6
    endloop
  endfacet
  facet normal 0 -1 -0
    outer loop
      vertex 6 0 6
      vertex 4 0 3
      vertex 6 0 3
    endloop
  endfacet
  facet normal 0 -1 0
    outer loop
      vertex 4 0 6
      vertex 0 0 7
      vertex 1 0 6
    endloop
  endfacet
  facet normal 0 -1 0
    outer loop
      vertex 0 0 7
      vertex 1 0 3
      vertex 1 0 6
    endloop
  endfacet
  facet normal 0 -1 0
    outer loop
      vertex 0 0 0
      vertex 4 0 3
      vertex 1 0 3
    endloop
  endfacet
  facet normal 0 -1 -0
    outer loop
      vertex 4 0 3
      vertex 0 0 0
      vertex 6 0 3
    endloop
  endfacet
  facet normal 0 -1 0
    outer loop
      vertex 10 0 0
      vertex 6 0 3
      vertex 0 0 0
    endloop
  endfacet
  facet normal 0 -1 0
    outer loop
      vertex 0 0 0
      vertex 1 0 3
      vertex 0 0 7
    endloop
  endfacet
  facet normal 0 -1 0
    outer loop
      vertex 0 0 7
      vertex 4 0 6
      vertex 10 0 7
    endloop
  endfacet
  facet normal 0 -1 0
    outer loop
      vertex 6 0 6
      vertex 10 0 7
      vertex 4 0 6
    endloop
  endfacet
  facet normal 0 -1 0
    outer loop
      vertex 9 0 6
      vertex 10 0 7
      vertex 6 0 6
    endloop
  endfacet
  facet normal 0 -1 0
    outer loop
      vertex 9 0 3
      vertex 10 0 7
      vertex 9 0 6
    endloop
  endfacet
  facet normal 0 -1 0
    outer loop
      vertex 9 0 3
      vertex 10 0 0
      vertex 10 0 7
    endloop
  endfacet
  facet normal 0 -1 0
    outer loop
      vertex 6 0 3
      vertex 10 0 0
      vertex 9 0 3
    endloop
  endfacet
  facet normal 0 -1 0
    outer loop
      vertex 1 3 3
      vertex 4 3 6
      vertex 1 3 6
    endloop
  endfacet
  facet normal 0 -1 -0
    outer loop
      vertex 4 3 6
      vertex 1 3 3
      vertex 4 3 3
    endloop
  endfacet
  facet normal 0 0 -1
    outer loop
      vertex 1 0 6
      vertex 4 3 6
      vertex 4 0 6
    endloop
  endfacet
  facet normal -0 0 -1
    outer loop
      vertex 4 3 6
      vertex 1 0 6
      vertex 1 3 6
    endloop
  endfacet
  facet normal -0.743149 -0.669126 0
    outer loop
      vertex 9.11803 6.17557 11.1
      vertex 8.83826 6.48629 14.1
      vertex 8.83826 6.48629 11.1
    endloop
  endfacet
  facet normal -0.743149 -0.669126 0
    outer loop
      vertex 8.83826 6.48629 14.1
      vertex 9.11803 6.17557 11.1
      vertex 9.11803 6.17557 14.1
    endloop
  endfacet
  facet normal 0 0 1
    outer loop
      vertex 9.4563 5.41582 11.1
      vertex 9.4563 4.58418 11.1
      vertex 9.5 5 11.1
    endloop
  endfacet
  facet normal 0 0 1
    outer loop
      vertex 9.32709 5.81347 11.1
      vertex 9.4563 4.58418 11.1
      vertex 9.4563 5.41582 11.1
    endloop
  endfacet
  facet normal 0 0 1
    outer loop
      vertex 9.32709 5.81347 11.1
      vertex 9.32709 4.18653 11.1
      vertex 9.4563 4.58418 11.1
    endloop
  endfacet
  facet normal 0 0 1
    outer loop
      vertex 9.11803 6.17557 11.1
      vertex 9.32709 4.18653 11.1
      vertex 9.32709 5.81347 11.1
    endloop
  endfacet
  facet normal 0 0 1
    outer loop
      vertex 9.11803 6.17557 11.1
      vertex 9.11803 3.82443 11.1
      vertex 9.32709 4.18653 11.1
    endloop
  endfacet
  facet normal 0 0 1
    outer loop
      vertex 8.83826 6.48629 11.1
      vertex 9.11803 3.82443 11.1
      vertex 9.11803 6.17557 11.1
    endloop
  endfacet
  facet normal 0 0 1
    outer loop
      vertex 8.83826 6.48629 11.1
      vertex 8.83826 3.51371 11.1
      vertex 9.11803 3.82443 11.1
    endloop
  endfacet
  facet normal 0 0 1
    outer loop
      vertex 8.5 6.73205 11.1
      vertex 8.83826 3.51371 11.1
      vertex 8.83826 6.48629 11.1
    endloop
  endfacet
  facet normal 0 0 1
    outer loop
      vertex 8.5 6.73205 11.1
      vertex 8.5 3.26795 11.1
      vertex 8.83826 3.51371 11.1
    endloop
  endfacet
  facet normal 0 0 1
    outer loop
      vertex 8.11803 6.90211 11.1
      vertex 8.5 3.26795 11.1
      vertex 8.5 6.73205 11.1
    endloop
  endfacet
  facet normal 0 0 1
    outer loop
      vertex 8.11803 6.90211 11.1
      vertex 8.11803 3.09789 11.1
      vertex 8.5 3.26795 11.1
    endloop
  endfacet
  facet normal 0 0 1
    outer loop
      vertex 7.70906 6.98904 11.1
      vertex 8.11803 3.09789 11.1
      vertex 8.11803 6.90211 11.1
    endloop
  endfacet
  facet normal 0 0 1
    outer loop
      vertex 7.70906 6.98904 11.1
      vertex 7.70906 3.01096 11.1
      vertex 8.11803 3.09789 11.1
    endloop
  endfacet
  facet normal -0 0 1
    outer loop
      vertex 7.29094 6.98904 11.1
      vertex 7.70906 3.01096 11.1
      vertex 7.70906 6.98904 11.1
    endloop
  endfacet
  facet normal 0 0 1
    outer loop
      vertex 7.29094 6.98904 11.1
      vertex 7.29094 3.01096 11.1
      vertex 7.70906 3.01096 11.1
    endloop
  endfacet
  facet normal -0 0 1
    outer loop
      vertex 6.88197 6.90211 11.1
      vertex 7.29094 3.01096 11.1
      vertex 7.29094 6.98904 11.1
    endloop
  endfacet
  facet normal 0 0 1
    outer loop
      vertex 6.88197 6.90211 11.1
      vertex 6.88197 3.09789 11.1
      vertex 7.29094 3.01096 11.1
    endloop
  endfacet
  facet normal -0 0 1
    outer loop
      vertex 6.5 6.73205 11.1
      vertex 6.88197 3.09789 11.1
      vertex 6.88197 6.90211 11.1
    endloop
  endfacet
  facet normal 0 0 1
    outer loop
      vertex 6.5 6.73205 11.1
      vertex 6.5 3.26795 11.1
      vertex 6.88197 3.09789 11.1
    endloop
  endfacet
  facet normal -0 0 1
    outer loop
      vertex 6.16174 6.48629 11.1
      vertex 6.5 3.26795 11.1
      vertex 6.5 6.73205 11.1
    endloop
  endfacet
  facet normal 0 0 1
    outer loop
      vertex 6.16174 6.48629 11.1
      vertex 6.16174 3.51371 11.1
      vertex 6.5 3.26795 11.1
    endloop
  endfacet
  facet normal -0 0 1
    outer loop
      vertex 5.88197 6.17557 11.1
      vertex 6.16174 3.51371 11.1
      vertex 6.16174 6.48629 11.1
    endloop
  endfacet
  facet normal 0 0 1
    outer loop
      vertex 5.88197 6.17557 11.1
      vertex 5.88197 3.82443 11.1
      vertex 6.16174 3.51371 11.1
    endloop
  endfacet
  facet normal -0 0 1
    outer loop
      vertex 5.67291 5.81347 11.1
      vertex 5.88197 3.82443 11.1
      vertex 5.88197 6.17557 11.1
    endloop
  endfacet
  facet normal 0 0 1
    outer loop
      vertex 5.67291 5.81347 11.1
      vertex 5.67291 4.18653 11.1
      vertex 5.88197 3.82443 11.1
    endloop
  endfacet
  facet normal -0 0 1
    outer loop
      vertex 5.5437 5.41582 11.1
      vertex 5.67291 4.18653 11.1
      vertex 5.67291 5.81347 11.1
    endloop
  endfacet
  facet normal 0 0 1
    outer loop
      vertex 5.5437 5.41582 11.1
      vertex 5.5437 4.58418 11.1
      vertex 5.67291 4.18653 11.1
    endloop
  endfacet
  facet normal 0 -0 1
    outer loop
      vertex 5.5437 4.58418 11.1
      vertex 5.5437 5.41582 11.1
      vertex 5.5 5 11.1
    endloop
  endfacet
  facet normal 0.207913 0.978147 -0
    outer loop
      vertex 7.29094 3.01096 11.1
      vertex 6.88197 3.09789 14.1
      vertex 7.29094 3.01096 14.1
    endloop
  endfacet
  facet normal 0.207913 0.978147 0
    outer loop
      vertex 6.88197 3.09789 14.1
      vertex 7.29094 3.01096 11.1
      vertex 6.88197 3.09789 11.1
    endloop
  endfacet
  facet normal -0.994523 0.104518 0
    outer loop
      vertex 9.4563 4.58418 11.1
      vertex 9.5 5 14.1
      vertex 9.5 5 11.1
    endloop
  endfacet
  facet normal -0.994523 0.104518 0
    outer loop
      vertex 9.5 5 14.1
      vertex 9.4563 4.58418 11.1
      vertex 9.4563 4.58418 14.1
    endloop
  endfacet
  facet normal -0.207913 -0.978147 0
    outer loop
      vertex 7.70906 6.98904 11.1
      vertex 8.11803 6.90211 14.1
      vertex 7.70906 6.98904 14.1
    endloop
  endfacet
  facet normal -0.207913 -0.978147 -0
    outer loop
      vertex 8.11803 6.90211 14.1
      vertex 7.70906 6.98904 11.1
      vertex 8.11803 6.90211 11.1
    endloop
  endfacet
  facet normal 0.951053 -0.309029 0
    outer loop
      vertex 5.5437 5.41582 14.1
      vertex 5.67291 5.81347 11.1
      vertex 5.67291 5.81347 14.1
    endloop
  endfacet
  facet normal 0.951053 -0.309029 0
    outer loop
      vertex 5.67291 5.81347 11.1
      vertex 5.5437 5.41582 14.1
      vertex 5.5437 5.41582 11.1
    endloop
  endfacet
  facet normal -0.866024 -0.500003 0
    outer loop
      vertex 9.32709 5.81347 11.1
      vertex 9.11803 6.17557 14.1
      vertex 9.11803 6.17557 11.1
    endloop
  endfacet
  facet normal -0.866024 -0.500003 0
    outer loop
      vertex 9.11803 6.17557 14.1
      vertex 9.32709 5.81347 11.1
      vertex 9.32709 5.81347 14.1
    endloop
  endfacet
  facet normal -0.951053 -0.309029 0
    outer loop
      vertex 9.4563 5.41582 11.1
      vertex 9.32709 5.81347 14.1
      vertex 9.32709 5.81347 11.1
    endloop
  endfacet
  facet normal -0.951053 -0.309029 0
    outer loop
      vertex 9.32709 5.81347 14.1
      vertex 9.4563 5.41582 11.1
      vertex 9.4563 5.41582 14.1
    endloop
  endfacet
  facet normal -0.994523 -0.104518 0
    outer loop
      vertex 9.5 5 11.1
      vertex 9.4563 5.41582 14.1
      vertex 9.4563 5.41582 11.1
    endloop
  endfacet
  facet normal -0.994523 -0.104518 0
    outer loop
      vertex 9.4563 5.41582 14.1
      vertex 9.5 5 11.1
      vertex 9.5 5 14.1
    endloop
  endfacet
  facet normal -0.406729 0.913549 0
    outer loop
      vertex 8.5 3.26795 11.1
      vertex 8.11803 3.09789 14.1
      vertex 8.5 3.26795 14.1
    endloop
  endfacet
  facet normal -0.406729 0.913549 0
    outer loop
      vertex 8.11803 3.09789 14.1
      vertex 8.5 3.26795 11.1
      vertex 8.11803 3.09789 11.1
    endloop
  endfacet
  facet normal 0.951053 0.309029 0
    outer loop
      vertex 5.67291 4.18653 14.1
      vertex 5.5437 4.58418 11.1
      vertex 5.5437 4.58418 14.1
    endloop
  endfacet
  facet normal 0.951053 0.309029 0
    outer loop
      vertex 5.5437 4.58418 11.1
      vertex 5.67291 4.18653 14.1
      vertex 5.67291 4.18653 11.1
    endloop
  endfacet
  facet normal 0.743149 -0.669126 0
    outer loop
      vertex 5.88197 6.17557 14.1
      vertex 6.16174 6.48629 11.1
      vertex 6.16174 6.48629 14.1
    endloop
  endfacet
  facet normal 0.743149 -0.669126 0
    outer loop
      vertex 6.16174 6.48629 11.1
      vertex 5.88197 6.17557 14.1
      vertex 5.88197 6.17557 11.1
    endloop
  endfacet
  facet normal -0.406729 -0.913549 0
    outer loop
      vertex 8.11803 6.90211 11.1
      vertex 8.5 6.73205 14.1
      vertex 8.11803 6.90211 14.1
    endloop
  endfacet
  facet normal -0.406729 -0.913549 -0
    outer loop
      vertex 8.5 6.73205 14.1
      vertex 8.11803 6.90211 11.1
      vertex 8.5 6.73205 11.1
    endloop
  endfacet
  facet normal 0.866024 0.500003 0
    outer loop
      vertex 5.88197 3.82443 14.1
      vertex 5.67291 4.18653 11.1
      vertex 5.67291 4.18653 14.1
    endloop
  endfacet
  facet normal 0.866024 0.500003 0
    outer loop
      vertex 5.67291 4.18653 11.1
      vertex 5.88197 3.82443 14.1
      vertex 5.88197 3.82443 11.1
    endloop
  endfacet
  facet normal 0.587785 0.809017 -0
    outer loop
      vertex 6.5 3.26795 11.1
      vertex 6.16174 3.51371 14.1
      vertex 6.5 3.26795 14.1
    endloop
  endfacet
  facet normal 0.587785 0.809017 0
    outer loop
      vertex 6.16174 3.51371 14.1
      vertex 6.5 3.26795 11.1
      vertex 6.16174 3.51371 11.1
    endloop
  endfacet
  facet normal 0 1 -0
    outer loop
      vertex 7.70906 3.01096 11.1
      vertex 7.29094 3.01096 14.1
      vertex 7.70906 3.01096 14.1
    endloop
  endfacet
  facet normal 0 1 0
    outer loop
      vertex 7.29094 3.01096 14.1
      vertex 7.70906 3.01096 11.1
      vertex 7.29094 3.01096 11.1
    endloop
  endfacet
  facet normal -0.207913 0.978147 0
    outer loop
      vertex 8.11803 3.09789 11.1
      vertex 7.70906 3.01096 14.1
      vertex 8.11803 3.09789 14.1
    endloop
  endfacet
  facet normal -0.207913 0.978147 0
    outer loop
      vertex 7.70906 3.01096 14.1
      vertex 8.11803 3.09789 11.1
      vertex 7.70906 3.01096 11.1
    endloop
  endfacet
  facet normal -0.587785 0.809017 0
    outer loop
      vertex 8.83826 3.51371 11.1
      vertex 8.5 3.26795 14.1
      vertex 8.83826 3.51371 14.1
    endloop
  endfacet
  facet normal -0.587785 0.809017 0
    outer loop
      vertex 8.5 3.26795 14.1
      vertex 8.83826 3.51371 11.1
      vertex 8.5 3.26795 11.1
    endloop
  endfacet
  facet normal -0.866024 0.500003 0
    outer loop
      vertex 9.11803 3.82443 11.1
      vertex 9.32709 4.18653 14.1
      vertex 9.32709 4.18653 11.1
    endloop
  endfacet
  facet normal -0.866024 0.500003 0
    outer loop
      vertex 9.32709 4.18653 14.1
      vertex 9.11803 3.82443 11.1
      vertex 9.11803 3.82443 14.1
    endloop
  endfacet
  facet normal 0.994523 -0.104518 0
    outer loop
      vertex 5.5 5 14.1
      vertex 5.5437 5.41582 11.1
      vertex 5.5437 5.41582 14.1
    endloop
  endfacet
  facet normal 0.994523 -0.104518 0
    outer loop
      vertex 5.5437 5.41582 11.1
      vertex 5.5 5 14.1
      vertex 5.5 5 11.1
    endloop
  endfacet
  facet normal 0.866024 -0.500003 0
    outer loop
      vertex 5.67291 5.81347 14.1
      vertex 5.88197 6.17557 11.1
      vertex 5.88197 6.17557 14.1
    endloop
  endfacet
  facet normal 0.866024 -0.500003 0
    outer loop
      vertex 5.88197 6.17557 11.1
      vertex 5.67291 5.81347 14.1
      vertex 5.67291 5.81347 11.1
    endloop
  endfacet
  facet normal -0.587785 -0.809017 0
    outer loop
      vertex 8.5 6.73205 11.1
      vertex 8.83826 6.48629 14.1
      vertex 8.5 6.73205 14.1
    endloop
  endfacet
  facet normal -0.587785 -0.809017 -0
    outer loop
      vertex 8.83826 6.48629 14.1
      vertex 8.5 6.73205 11.1
      vertex 8.83826 6.48629 11.1
    endloop
  endfacet
  facet normal 0.207913 -0.978147 0
    outer loop
      vertex 6.88197 6.90211 11.1
      vertex 7.29094 6.98904 14.1
      vertex 6.88197 6.90211 14.1
    endloop
  endfacet
  facet normal 0.207913 -0.978147 0
    outer loop
      vertex 7.29094 6.98904 14.1
      vertex 6.88197 6.90211 11.1
      vertex 7.29094 6.98904 11.1
    endloop
  endfacet
  facet normal 0.406729 -0.913549 0
    outer loop
      vertex 6.5 6.73205 11.1
      vertex 6.88197 6.90211 14.1
      vertex 6.5 6.73205 14.1
    endloop
  endfacet
  facet normal 0.406729 -0.913549 0
    outer loop
      vertex 6.88197 6.90211 14.1
      vertex 6.5 6.73205 11.1
      vertex 6.88197 6.90211 11.1
    endloop
  endfacet
  facet normal 0 -1 0
    outer loop
      vertex 7.29094 6.98904 11.1
      vertex 7.70906 6.98904 14.1
      vertex 7.29094 6.98904 14.1
    endloop
  endfacet
  facet normal 0 -1 -0
    outer loop
      vertex 7.70906 6.98904 14.1
      vertex 7.29094 6.98904 11.1
      vertex 7.70906 6.98904 11.1
    endloop
  endfacet
  facet normal 0.587785 -0.809017 0
    outer loop
      vertex 6.16174 6.48629 11.1
      vertex 6.5 6.73205 14.1
      vertex 6.16174 6.48629 14.1
    endloop
  endfacet
  facet normal 0.587785 -0.809017 0
    outer loop
      vertex 6.5 6.73205 14.1
      vertex 6.16174 6.48629 11.1
      vertex 6.5 6.73205 11.1
    endloop
  endfacet
  facet normal 0.406729 0.913549 -0
    outer loop
      vertex 6.88197 3.09789 11.1
      vertex 6.5 3.26795 14.1
      vertex 6.88197 3.09789 14.1
    endloop
  endfacet
  facet normal 0.406729 0.913549 0
    outer loop
      vertex 6.5 3.26795 14.1
      vertex 6.88197 3.09789 11.1
      vertex 6.5 3.26795 11.1
    endloop
  endfacet
  facet normal 0.743149 0.669126 0
    outer loop
      vertex 6.16174 3.51371 14.1
      vertex 5.88197 3.82443 11.1
      vertex 5.88197 3.82443 14.1
    endloop
  endfacet
  facet normal 0.743149 0.669126 0
    outer loop
      vertex 5.88197 3.82443 11.1
      vertex 6.16174 3.51371 14.1
      vertex 6.16174 3.51371 11.1
    endloop
  endfacet
  facet normal -0.743149 0.669126 0
    outer loop
      vertex 8.83826 3.51371 11.1
      vertex 9.11803 3.82443 14.1
      vertex 9.11803 3.82443 11.1
    endloop
  endfacet
  facet normal -0.743149 0.669126 0
    outer loop
      vertex 9.11803 3.82443 14.1
      vertex 8.83826 3.51371 11.1
      vertex 8.83826 3.51371 14.1
    endloop
  endfacet
  facet normal -0.951053 0.309029 0
    outer loop
      vertex 9.32709 4.18653 11.1
      vertex 9.4563 4.58418 14.1
      vertex 9.4563 4.58418 11.1
    endloop
  endfacet
  facet normal -0.951053 0.309029 0
    outer loop
      vertex 9.4563 4.58418 14.1
      vertex 9.32709 4.18653 11.1
      vertex 9.32709 4.18653 14.1
    endloop
  endfacet
  facet normal 0.994523 0.104518 0
    outer loop
      vertex 5.5437 4.58418 14.1
      vertex 5.5 5 11.1
      vertex 5.5 5 14.1
    endloop
  endfacet
  facet normal 0.994523 0.104518 0
    outer loop
      vertex 5.5 5 11.1
      vertex 5.5437 4.58418 14.1
      vertex 5.5437 4.58418 11.1
    endloop
  endfacet
  facet normal -0 0 1
    outer loop
      vertex 6 3 3
      vertex 9 0 3
      vertex 9 3 3
    endloop
  endfacet
  facet normal 0 0 1
    outer loop
      vertex 9 0 3
      vertex 6 3 3
      vertex 6 0 3
    endloop
  endfacet
  facet normal -1 0 0
    outer loop
      vertex 9 0 3
      vertex 9 3 6
      vertex 9 3 3
    endloop
  endfacet
  facet normal -1 -0 0
    outer loop
      vertex 9 3 6
      vertex 9 0 3
      vertex 9 0 6
    endloop
  endfacet
  facet normal 1 -0 0
    outer loop
      vertex 6 0 6
      vertex 6 3 3
      vertex 6 3 6
    endloop
  endfacet
  facet normal 1 0 0
    outer loop
      vertex 6 3 3
      vertex 6 0 6
      vertex 6 0 3
    endloop
  endfacet
  facet normal 0 -1 0
    outer loop
      vertex 6 3 3
      vertex 9 3 6
      vertex 6 3 6
    endloop
  endfacet
  facet normal 0 -1 -0
    outer loop
      vertex 9 3 6
      vertex 6 3 3
      vertex 9 3 3
    endloop
  endfacet
  facet normal 0 0 -1
    outer loop
      vertex 6 0 6
      vertex 9 3 6
      vertex 9 0 6
    endloop
  endfacet
  facet normal -0 0 -1
    outer loop
      vertex 9 3 6
      vertex 6 0 6
      vertex 6 3 6
    endloop
  endfacet
  facet normal 0 -0.943235 0.332125
    outer loop
      vertex 0 0 7
      vertex 10 2.5 14.1
      vertex 0 2.5 14.1
    endloop
  endfacet
  facet normal 0 -0.943235 0.332125
    outer loop
      vertex 10 2.5 14.1
      vertex 0 0 7
      vertex 10 0 7
    endloop
  endfacet
  facet normal 0 0 1
    outer loop
      vertex 10 7.5 14.1
      vertex 9.5 5 14.1
      vertex 10 2.5 14.1
    endloop
  endfacet
  facet normal 0 0 1
    outer loop
      vertex 10 7.5 14.1
      vertex 9.4563 5.41582 14.1
      vertex 9.5 5 14.1
    endloop
  endfacet
  facet normal 0 0 1
    outer loop
      vertex 10 7.5 14.1
      vertex 9.32709 5.81347 14.1
      vertex 9.4563 5.41582 14.1
    endloop
  endfacet
  facet normal 0 0 1
    outer loop
      vertex 10 7.5 14.1
      vertex 9.11803 6.17557 14.1
      vertex 9.32709 5.81347 14.1
    endloop
  endfacet
  facet normal 0 0 1
    outer loop
      vertex 10 7.5 14.1
      vertex 8.83826 6.48629 14.1
      vertex 9.11803 6.17557 14.1
    endloop
  endfacet
  facet normal 0 0 1
    outer loop
      vertex 10 7.5 14.1
      vertex 8.5 6.73205 14.1
      vertex 8.83826 6.48629 14.1
    endloop
  endfacet
  facet normal 0 0 1
    outer loop
      vertex 10 7.5 14.1
      vertex 8.11803 6.90211 14.1
      vertex 8.5 6.73205 14.1
    endloop
  endfacet
  facet normal 0 0 1
    outer loop
      vertex 10 7.5 14.1
      vertex 7.70906 6.98904 14.1
      vertex 8.11803 6.90211 14.1
    endloop
  endfacet
  facet normal 0 0 1
    outer loop
      vertex 10 7.5 14.1
      vertex 7.29094 6.98904 14.1
      vertex 7.70906 6.98904 14.1
    endloop
  endfacet
  facet normal 0 0 1
    outer loop
      vertex 5.5437 5.41582 14.1
      vertex 4.5 5 14.1
      vertex 5.5 5 14.1
    endloop
  endfacet
  facet normal 0 0 1
    outer loop
      vertex 4.4563 5.41582 14.1
      vertex 5.5437 5.41582 14.1
      vertex 5.67291 5.81347 14.1
    endloop
  endfacet
  facet normal 0 0 1
    outer loop
      vertex 4.32709 5.81347 14.1
      vertex 5.67291 5.81347 14.1
      vertex 5.88197 6.17557 14.1
    endloop
  endfacet
  facet normal 0 0 1
    outer loop
      vertex 4.11803 6.17557 14.1
      vertex 5.88197 6.17557 14.1
      vertex 6.16174 6.48629 14.1
    endloop
  endfacet
  facet normal 0 0 1
    outer loop
      vertex 5.5437 5.41582 14.1
      vertex 4.4563 5.41582 14.1
      vertex 4.5 5 14.1
    endloop
  endfacet
  facet normal 0 0 1
    outer loop
      vertex 3.83826 6.48629 14.1
      vertex 6.16174 6.48629 14.1
      vertex 6.5 6.73205 14.1
    endloop
  endfacet
  facet normal 0 0 1
    outer loop
      vertex 5.67291 5.81347 14.1
      vertex 4.32709 5.81347 14.1
      vertex 4.4563 5.41582 14.1
    endloop
  endfacet
  facet normal 0 0 1
    outer loop
      vertex 3.5 6.73205 14.1
      vertex 6.5 6.73205 14.1
      vertex 6.88197 6.90211 14.1
    endloop
  endfacet
  facet normal 0 0 1
    outer loop
      vertex 5.88197 6.17557 14.1
      vertex 4.11803 6.17557 14.1
      vertex 4.32709 5.81347 14.1
    endloop
  endfacet
  facet normal 0 0 1
    outer loop
      vertex 6.16174 6.48629 14.1
      vertex 3.83826 6.48629 14.1
      vertex 4.11803 6.17557 14.1
    endloop
  endfacet
  facet normal 0 0 1
    outer loop
      vertex 3.11803 6.90211 14.1
      vertex 6.88197 6.90211 14.1
      vertex 7.29094 6.98904 14.1
    endloop
  endfacet
  facet normal 0 0 1
    outer loop
      vertex 2.70906 6.98904 14.1
      vertex 7.29094 6.98904 14.1
      vertex 10 7.5 14.1
    endloop
  endfacet
  facet normal 0 0 1
    outer loop
      vertex 6.5 6.73205 14.1
      vertex 3.5 6.73205 14.1
      vertex 3.83826 6.48629 14.1
    endloop
  endfacet
  facet normal 0 0 1
    outer loop
      vertex 6.88197 6.90211 14.1
      vertex 3.11803 6.90211 14.1
      vertex 3.5 6.73205 14.1
    endloop
  endfacet
  facet normal 0 0 1
    outer loop
      vertex 7.29094 6.98904 14.1
      vertex 2.70906 6.98904 14.1
      vertex 3.11803 6.90211 14.1
    endloop
  endfacet
  facet normal -0 0 1
    outer loop
      vertex 0 7.5 14.1
      vertex 2.70906 6.98904 14.1
      vertex 10 7.5 14.1
    endloop
  endfacet
  facet normal 0 0 1
    outer loop
      vertex 0.543704 5.41582 14.1
      vertex 0 7.5 14.1
      vertex 0.5 5 14.1
    endloop
  endfacet
  facet normal 0 0 1
    outer loop
      vertex 0.672909 5.81347 14.1
      vertex 0 7.5 14.1
      vertex 0.543704 5.41582 14.1
    endloop
  endfacet
  facet normal 0 0 1
    outer loop
      vertex 0.881966 6.17557 14.1
      vertex 0 7.5 14.1
      vertex 0.672909 5.81347 14.1
    endloop
  endfacet
  facet normal 0 0 1
    outer loop
      vertex 1.16174 6.48629 14.1
      vertex 0 7.5 14.1
      vertex 0.881966 6.17557 14.1
    endloop
  endfacet
  facet normal 0 0 1
    outer loop
      vertex 1.5 6.73205 14.1
      vertex 0 7.5 14.1
      vertex 1.16174 6.48629 14.1
    endloop
  endfacet
  facet normal 0 0 1
    outer loop
      vertex 1.88197 6.90211 14.1
      vertex 0 7.5 14.1
      vertex 1.5 6.73205 14.1
    endloop
  endfacet
  facet normal 0 0 1
    outer loop
      vertex 2.29094 6.98904 14.1
      vertex 0 7.5 14.1
      vertex 1.88197 6.90211 14.1
    endloop
  endfacet
  facet normal 0 0 1
    outer loop
      vertex 2.70906 6.98904 14.1
      vertex 0 7.5 14.1
      vertex 2.29094 6.98904 14.1
    endloop
  endfacet
  facet normal -0 0 1
    outer loop
      vertex 9.4563 4.58418 14.1
      vertex 10 2.5 14.1
      vertex 9.5 5 14.1
    endloop
  endfacet
  facet normal -0 0 1
    outer loop
      vertex 9.32709 4.18653 14.1
      vertex 10 2.5 14.1
      vertex 9.4563 4.58418 14.1
    endloop
  endfacet
  facet normal -0 0 1
    outer loop
      vertex 9.11803 3.82443 14.1
      vertex 10 2.5 14.1
      vertex 9.32709 4.18653 14.1
    endloop
  endfacet
  facet normal -0 0 1
    outer loop
      vertex 8.83826 3.51371 14.1
      vertex 10 2.5 14.1
      vertex 9.11803 3.82443 14.1
    endloop
  endfacet
  facet normal -0 0 1
    outer loop
      vertex 8.5 3.26795 14.1
      vertex 10 2.5 14.1
      vertex 8.83826 3.51371 14.1
    endloop
  endfacet
  facet normal -0 0 1
    outer loop
      vertex 8.11803 3.09789 14.1
      vertex 10 2.5 14.1
      vertex 8.5 3.26795 14.1
    endloop
  endfacet
  facet normal -0 0 1
    outer loop
      vertex 7.70906 3.01096 14.1
      vertex 10 2.5 14.1
      vertex 8.11803 3.09789 14.1
    endloop
  endfacet
  facet normal -0 0 1
    outer loop
      vertex 7.29094 3.01096 14.1
      vertex 10 2.5 14.1
      vertex 7.70906 3.01096 14.1
    endloop
  endfacet
  facet normal -0 0 1
    outer loop
      vertex 4.5 5 14.1
      vertex 5.5437 4.58418 14.1
      vertex 5.5 5 14.1
    endloop
  endfacet
  facet normal 0 0 1
    outer loop
      vertex 4.4563 4.58418 14.1
      vertex 5.5437 4.58418 14.1
      vertex 4.5 5 14.1
    endloop
  endfacet
  facet normal 0 0 1
    outer loop
      vertex 5.5437 4.58418 14.1
      vertex 4.4563 4.58418 14.1
      vertex 5.67291 4.18653 14.1
    endloop
  endfacet
  facet normal 0 0 1
    outer loop
      vertex 4.32709 4.18653 14.1
      vertex 5.67291 4.18653 14.1
      vertex 4.4563 4.58418 14.1
    endloop
  endfacet
  facet normal 0 0 1
    outer loop
      vertex 5.67291 4.18653 14.1
      vertex 4.32709 4.18653 14.1
      vertex 5.88197 3.82443 14.1
    endloop
  endfacet
  facet normal 0 0 1
    outer loop
      vertex 4.11803 3.82443 14.1
      vertex 5.88197 3.82443 14.1
      vertex 4.32709 4.18653 14.1
    endloop
  endfacet
  facet normal 0 0 1
    outer loop
      vertex 5.88197 3.82443 14.1
      vertex 4.11803 3.82443 14.1
      vertex 6.16174 3.51371 14.1
    endloop
  endfacet
  facet normal 0 0 1
    outer loop
      vertex 3.83826 3.51371 14.1
      vertex 6.16174 3.51371 14.1
      vertex 4.11803 3.82443 14.1
    endloop
  endfacet
  facet normal 0 0 1
    outer loop
      vertex 6.16174 3.51371 14.1
      vertex 3.83826 3.51371 14.1
      vertex 6.5 3.26795 14.1
    endloop
  endfacet
  facet normal 0 0 1
    outer loop
      vertex 3.5 3.26795 14.1
      vertex 6.5 3.26795 14.1
      vertex 3.83826 3.51371 14.1
    endloop
  endfacet
  facet normal 0 0 1
    outer loop
      vertex 6.5 3.26795 14.1
      vertex 3.5 3.26795 14.1
      vertex 6.88197 3.09789 14.1
    endloop
  endfacet
  facet normal 0 0 1
    outer loop
      vertex 3.11803 3.09789 14.1
      vertex 6.88197 3.09789 14.1
      vertex 3.5 3.26795 14.1
    endloop
  endfacet
  facet normal 0 0 1
    outer loop
      vertex 6.88197 3.09789 14.1
      vertex 3.11803 3.09789 14.1
      vertex 7.29094 3.01096 14.1
    endloop
  endfacet
  facet normal 0 0 1
    outer loop
      vertex 2.70906 3.01096 14.1
      vertex 7.29094 3.01096 14.1
      vertex 3.11803 3.09789 14.1
    endloop
  endfacet
  facet normal 0 0 1
    outer loop
      vertex 7.29094 3.01096 14.1
      vertex 2.70906 3.01096 14.1
      vertex 10 2.5 14.1
    endloop
  endfacet
  facet normal 0 0 1
    outer loop
      vertex 0 2.5 14.1
      vertex 2.70906 3.01096 14.1
      vertex 2.29094 3.01096 14.1
    endloop
  endfacet
  facet normal 0 0 1
    outer loop
      vertex 0 2.5 14.1
      vertex 0.5 5 14.1
      vertex 0 7.5 14.1
    endloop
  endfacet
  facet normal 0 0 1
    outer loop
      vertex 2.70906 3.01096 14.1
      vertex 0 2.5 14.1
      vertex 10 2.5 14.1
    endloop
  endfacet
  facet normal 0 0 1
    outer loop
      vertex 1.88197 3.09789 14.1
      vertex 0 2.5 14.1
      vertex 2.29094 3.01096 14.1
    endloop
  endfacet
  facet normal 0 0 1
    outer loop
      vertex 1.5 3.26795 14.1
      vertex 0 2.5 14.1
      vertex 1.88197 3.09789 14.1
    endloop
  endfacet
  facet normal 0 0 1
    outer loop
      vertex 1.16174 3.51371 14.1
      vertex 0 2.5 14.1
      vertex 1.5 3.26795 14.1
    endloop
  endfacet
  facet normal 0 0 1
    outer loop
      vertex 0.881966 3.82443 14.1
      vertex 0 2.5 14.1
      vertex 1.16174 3.51371 14.1
    endloop
  endfacet
  facet normal 0 0 1
    outer loop
      vertex 0.672909 4.18653 14.1
      vertex 0 2.5 14.1
      vertex 0.881966 3.82443 14.1
    endloop
  endfacet
  facet normal 0 0 1
    outer loop
      vertex 0.543704 4.58418 14.1
      vertex 0 2.5 14.1
      vertex 0.672909 4.18653 14.1
    endloop
  endfacet
  facet normal 0 0 1
    outer loop
      vertex 0.5 5 14.1
      vertex 0 2.5 14.1
      vertex 0.543704 4.58418 14.1
    endloop
  endfacet
  facet normal -1 0 0
    outer loop
      vertex 0 0 0
      vertex 0 10 6
      vertex 0 10 0
    endloop
  endfacet
  facet normal -1 0 0
    outer loop
      vertex 0 10 6
      vertex 0 0 7
      vertex 0 7.5 14.1
    endloop
  endfacet
  facet normal -1 -0 0
    outer loop
      vertex 0 10 6
      vertex 0 0 0
      vertex 0 0 7
    endloop
  endfacet
  facet normal -1 -0 0
    outer loop
      vertex 0 7.5 14.1
      vertex 0 0 7
      vertex 0 2.5 14.1
    endloop
  endfacet
  facet normal 0 1 -0
    outer loop
      vertex 10 10 0
      vertex 0 10 6
      vertex 10 10 6
    endloop
  endfacet
  facet normal 0 1 0
    outer loop
      vertex 0 10 6
      vertex 10 10 0
      vertex 0 10 0
    endloop
  endfacet
  facet normal 0 0.955524 0.294915
    outer loop
      vertex 10 10 6
      vertex 0 7.5 14.1
      vertex 10 7.5 14.1
    endloop
  endfacet
  facet normal 0 0.955524 0.294915
    outer loop
      vertex 0 7.5 14.1
      vertex 10 10 6
      vertex 0 10 6
    endloop
  endfacet
  facet normal 1 -0 0
    outer loop
      vertex 10 0 7
      vertex 10 10 6
      vertex 10 7.5 14.1
    endloop
  endfacet
  facet normal 1 0 0
    outer loop
      vertex 10 0 7
      vertex 10 7.5 14.1
      vertex 10 2.5 14.1
    endloop
  endfacet
  facet normal 1 0 0
    outer loop
      vertex 10 0 0
      vertex 10 10 6
      vertex 10 0 7
    endloop
  endfacet
  facet normal 1 0 0
    outer loop
      vertex 10 10 6
      vertex 10 0 0
      vertex 10 10 0
    endloop
  endfacet
  facet normal 0 0 -1
    outer loop
      vertex 0 0 0
      vertex 10 10 0
      vertex 10 0 0
    endloop
  endfacet
  facet normal -0 0 -1
    outer loop
      vertex 10 10 0
      vertex 0 0 0
      vertex 0 10 0
    endloop
  endfacet
endsolid OpenSCAD_Model
